<svg xmlns="http://www.w3.org/2000/svg" width="320" height="600" viewBox="0 0 320 600">
  <rect width="320" height="600" fill="#0A0E1A"/>
  <ellipse cx="160" cy="34" rx="27" ry="33" fill="#162035" stroke="#4A6FA5" stroke-width="1.5"/>
  <ellipse cx="133" cy="36" rx="5" ry="8" fill="#162035" stroke="#4A6FA5" stroke-width="1.2"/>
  <ellipse cx="187" cy="36" rx="5" ry="8" fill="#162035" stroke="#4A6FA5" stroke-width="1.2"/>
  <path d="M148,66 L147,90 Q160,94 173,90 L172,66 Q160,70 148,66Z" fill="#162035" stroke="#4A6FA5" stroke-width="1.2"/>
  <path d="M148,66 Q172,66 185,78 Q210,88 232,98 Q248,110 255,135 Q260,158 255,180 Q252,205 248,230 Q244,248 240,258 Q238,268 234,272 Q228,278 224,274 Q220,270 222,262 Q226,248 230,230 Q234,205 236,180 Q240,158 238,136 Q234,112 224,104 Q218,100 210,96 Q220,102 224,120 Q228,140 226,160 Q224,175 220,185 Q216,198 214,210 Q214,230 218,242 Q222,252 220,262 Q218,280 216,300 Q214,320 213,340 Q212,360 212,378 Q212,392 213,404 Q215,420 214,438 Q213,460 212,478 Q211,492 210,500 Q210,512 208,520 Q206,528 204,532 Q204,546 208,554 Q214,560 222,558 Q230,556 234,548 Q238,540 236,532 Q234,520 233,510 Q232,498 232,490 Q232,474 233,460 Q234,442 234,424 Q233,408 232,394 Q231,380 231,364 Q231,346 232,328 Q233,310 234,292 Q236,274 238,262 Q240,252 240,242 Q239,232 236,226 Q232,218 228,216 Q224,214 220,216 Q216,218 212,220 Q208,222 205,222 Q201,222 197,220 Q193,218 190,216 Q186,214 182,216 Q178,218 175,226 Q172,232 171,242 Q170,252 172,262 Q174,274 176,292 Q177,310 178,328 Q179,346 179,364 Q179,380 178,394 Q177,408 176,424 Q175,442 175,460 Q175,474 175,490 Q175,498 174,510 Q173,520 171,532 Q169,540 173,548 Q177,556 185,558 Q193,560 199,554 Q205,546 205,532 Q203,528 201,520 Q199,512 199,500 Q198,492 197,478 Q196,460 195,438 Q194,420 196,404 Q197,392 197,378 Q197,360 196,340 Q195,320 193,300 Q191,280 189,262 Q187,252 184,242 Q181,232 180,218 Q177,206 175,196 Q173,185 170,175 Q168,160 166,140 Q164,120 168,100 Q158,96 150,100 Q140,104 130,112 Q122,120 118,136 Q116,158 120,180 Q124,205 128,230 Q132,248 134,262 Q136,270 138,274 Q134,278 128,272 Q124,268 122,258 Q118,248 114,230 Q110,205 107,180 Q102,158 107,135 Q114,110 130,98 Q150,88 148,66Z" fill="#162035" stroke="#4A6FA5" stroke-width="1.5" stroke-linejoin="round"/>
  <line x1="160" y1="90" x2="160" y2="270" stroke="#3A6080" stroke-width="1" stroke-dasharray="3,3" opacity="0.6"/>
  <path d="M160,92 Q140,90 120,100 Q110,105 108,114 Q118,108 130,104 Q145,100 160,98 Q175,100 190,104 Q202,108 212,114 Q210,105 200,100 Q180,90 160,92Z" fill="#2A4A7A" stroke="#3A5A8A" stroke-width="1" opacity="0.5"/>
  <path d="M160,120 Q145,118 130,124 Q120,130 118,140 Q126,134 138,130 Q150,126 160,126 Q170,126 182,130 Q194,134 202,140 Q200,130 190,124 Q175,118 160,120Z" fill="#2A4A7A" stroke="#3A5A8A" stroke-width="1" opacity="0.4"/>
  <path d="M128,108 Q120,118 118,135 Q118,150 122,162 Q130,170 140,168 Q148,162 150,152 Q152,140 148,126 Q144,114 136,108 Q132,106 128,108Z" fill="none" stroke="#3A5A8A" stroke-width="1.2" opacity="0.5"/>
  <path d="M192,108 Q200,118 202,135 Q202,150 198,162 Q190,170 180,168 Q172,162 170,152 Q168,140 172,126 Q176,114 184,108 Q188,106 192,108Z" fill="none" stroke="#3A5A8A" stroke-width="1.2" opacity="0.5"/>
  <path d="M154,185 Q150,195 148,210 Q147,225 148,240 Q152,250 156,252 Q160,253 160,250 L160,185Z" fill="#2A4A7A" stroke="#3A5A8A" stroke-width="1" opacity="0.4"/>
  <path d="M166,185 Q170,195 172,210 Q173,225 172,240 Q168,250 164,252 Q160,253 160,250 L160,185Z" fill="#2A4A7A" stroke="#3A5A8A" stroke-width="1" opacity="0.4"/>
  <path d="M144,215 Q138,220 136,232 Q135,244 138,252 Q142,258 148,256 Q154,252 156,244 Q158,234 156,222 Q154,214 148,212 Q146,212 144,215Z" fill="none" stroke="#3A5A8A" stroke-width="1" opacity="0.4"/>
  <path d="M176,215 Q182,220 184,232 Q185,244 182,252 Q178,258 172,256 Q166,252 164,244 Q162,234 164,222 Q166,214 172,212 Q174,212 176,215Z" fill="none" stroke="#3A5A8A" stroke-width="1" opacity="0.4"/>
  <path d="M182,292 Q175,302 160,306 Q145,302 138,292" fill="none" stroke="#3A5A8A" stroke-width="1.2" opacity="0.5"/>
  <path d="M178,270 Q186,278 188,294 Q186,308 178,312 Q170,314 164,308 Q160,300 162,288 Q164,276 172,270 Q175,268 178,270Z" fill="none" stroke="#3A5A8A" stroke-width="1.1" opacity="0.45"/>
  <path d="M142,270 Q134,278 132,294 Q134,308 142,312 Q150,314 156,308 Q160,300 158,288 Q156,276 148,270 Q145,268 142,270Z" fill="none" stroke="#3A5A8A" stroke-width="1.1" opacity="0.45"/>
  <path d="M178,328 Q182,360 180,394 Q178,406 174,410 Q170,406 170,394 Q169,360 172,328Z" fill="none" stroke="#3A5A8A" stroke-width="1" opacity="0.4"/>
  <path d="M190,330 Q192,362 190,396 Q188,408 184,410 Q180,406 180,394 Q180,362 184,330Z" fill="none" stroke="#3A5A8A" stroke-width="1" opacity="0.4"/>
  <path d="M142,328 Q138,360 140,394 Q142,406 146,410 Q150,406 150,394 Q151,360 148,328Z" fill="none" stroke="#3A5A8A" stroke-width="1" opacity="0.4"/>
  <path d="M130,330 Q128,362 130,396 Q132,408 136,410 Q140,406 140,394 Q140,362 136,330Z" fill="none" stroke="#3A5A8A" stroke-width="1" opacity="0.4"/>
  <path d="M176,430 Q182,450 180,470 Q178,486 174,492 Q170,488 170,472 Q170,452 172,432Z" fill="none" stroke="#3A5A8A" stroke-width="1" opacity="0.4"/>
  <path d="M188,432 Q192,452 190,472 Q188,486 184,492 Q180,488 180,470 Q180,450 184,434Z" fill="none" stroke="#3A5A8A" stroke-width="1" opacity="0.4"/>
  <path d="M144,430 Q138,450 140,470 Q142,486 146,492 Q150,488 150,472 Q150,452 148,432Z" fill="none" stroke="#3A5A8A" stroke-width="1" opacity="0.4"/>
  <path d="M132,432 Q128,452 130,472 Q132,486 136,492 Q140,488 140,470 Q140,450 136,434Z" fill="none" stroke="#3A5A8A" stroke-width="1" opacity="0.4"/>
  <line x1="180" y1="492" x2="180" y2="520" stroke="#3A5A8A" stroke-width="0.9" opacity="0.4"/>
  <line x1="140" y1="492" x2="140" y2="520" stroke="#3A5A8A" stroke-width="0.9" opacity="0.4"/>
  <circle cx="92" cy="102" r="5" fill="#0D1928" stroke="#5A7FC0" stroke-width="1.2" opacity="0.7"/>
  <circle cx="228" cy="102" r="5" fill="#0D1928" stroke="#5A7FC0" stroke-width="1.2" opacity="0.7"/>
  <circle cx="68" cy="200" r="5" fill="#0D1928" stroke="#5A7FC0" stroke-width="1.2" opacity="0.6"/>
  <circle cx="252" cy="200" r="5" fill="#0D1928" stroke="#5A7FC0" stroke-width="1.2" opacity="0.6"/>
  <circle cx="134" cy="418" r="8" fill="#0D1928" stroke="#5A7FC0" stroke-width="1.2" opacity="0.6"/>
  <circle cx="186" cy="418" r="8" fill="#0D1928" stroke="#5A7FC0" stroke-width="1.2" opacity="0.6"/>
  <defs>
    <filter id="glow" x="-20%" y="-20%" width="140%" height="140%">
      <feGaussianBlur stdDeviation="3" result="blur"/>
      <feComposite in="SourceGraphic" in2="blur" operator="over"/>
    </filter>
  </defs>
</svg>